<svg xmlns="http://www.w3.org/2000/svg" viewBox="0 0 1024 1024" role="img" aria-labelledby="title">
  <title id="title">Bench &amp; Beacon mark</title>
  <path fill="#000" fill-rule="evenodd" d="M315 183 L295 224 L262 267 L224 305 L204 321 L182 334 L182 337 L733 788 L743 787 L769 771 L796 746 L814 723 L829 695 L832 685 L831 678 L581 434 Z M514 624 L440 565 L278 733 L253 747 L211 757 L195 767 L184 778 L171 799 L165 823 L168 853 L183 881 L193 892 L207 901 L240 911 L268 908 L295 894 L316 870 L324 851 L330 824 L344 800 L503 638 Z M839 135 L809 136 L779 145 L752 162 L737 177 L721 205 L715 231 L713 266 L701 295 L686 314 L585 420 L651 486 L654 486 L752 384 L771 368 L797 356 L837 352 L861 345 L884 331 L908 305 L919 282 L925 261 L927 234 L924 216 L917 217 L851 284 L842 284 L813 272 L794 260 L787 249 L780 206 L842 141 Z M261 115 L251 111 L232 112 L194 131 L149 173 L124 204 L111 225 L97 261 L96 274 L99 285 L105 293 L150 329 L167 328 L191 315 L212 299 L256 255 L291 207 L305 176 L306 160 Z M838 709 L835 709 L826 727 L806 753 L781 777 L763 789 L802 825 L801 840 L814 851 L824 850 L834 845 L859 826 L889 791 L903 762 L902 753 L890 743 L876 745 Z M230 778 L242 780 L263 778 L276 792 L292 801 L292 816 L300 833 L292 846 L290 861 L273 869 L261 882 L245 879 L227 881 L216 868 L199 858 L199 844 L191 827 L200 813 L201 799 L219 789 Z M249 135 L249 147 L239 170 L221 198 L202 221 L162 260 L140 275 L125 279 L122 271 L128 254 L164 201 L200 164 L221 147 L240 136 Z"/>
</svg>
